<?xml version="1.0" encoding="UTF-8"?>
<svg xmlns="http://www.w3.org/2000/svg" viewBox="0 0 1560 985" font-family="Segoe UI,system-ui,sans-serif"><defs><marker id="arw" markerWidth="11" markerHeight="11" refX="8" refY="4" orient="auto"><path d="M0,0 L9,4 L0,8 Z" fill="#8a96a6"/></marker><marker id="arw2" markerWidth="11" markerHeight="11" refX="1" refY="4" orient="auto"><path d="M9,0 L0,4 L9,8 Z" fill="#8a96a6"/></marker></defs><path d="M505,380 L485,328" fill="none" stroke="#8a96a6" stroke-width="1.6" marker-end="url(#arw)"/><path d="M505,555 L485,600" fill="none" stroke="#8a96a6" stroke-width="1.6" marker-end="url(#arw)"/><path d="M260,649.5 L360,659" fill="none" stroke="#8a96a6" stroke-width="1.6" marker-end="url(#arw)"/><path d="M630,89 L700,89" fill="none" stroke="#8a96a6" stroke-width="1.6" marker-end="url(#arw)"/><path d="M910,89 L980,98.5" fill="none" stroke="#8a96a6" stroke-width="1.6" marker-end="url(#arw)"/><path d="M1105,328 L1115,380" fill="none" stroke="#8a96a6" stroke-width="1.6" marker-end="url(#arw)"/><path d="M1230,458 L1300,448.5" fill="none" stroke="#8a96a6" stroke-width="1.6" marker-end="url(#arw)"/><path d="M1230,678.5 L1300,678.5" fill="none" stroke="#8a96a6" stroke-width="1.6" marker-end="url(#arw)"/><path d="M1115,536 L1115,610" fill="none" stroke="#8a96a6" stroke-width="1.6" marker-end="url(#arw)" marker-start="url(#arw2)"/><path d="M1010,328 L985,345 L985,600 L1035,610" fill="none" stroke="#8a96a6" stroke-width="1.6" marker-end="url(#arw)"/><path d="M620,555 L620,790" fill="none" stroke="#8a96a6" stroke-width="1.6" marker-end="url(#arw)"/><g transform="translate(40,30)"><rect x="0" y="0" width="220" height="137" rx="9" fill="#ffffff" stroke="#d0d7e0" stroke-width="1"/><rect x="0" y="0" width="220" height="26" rx="9" fill="#64748b"/><rect x="0" y="12" width="220" height="14" fill="#64748b"/><text x="11" y="18" fill="#fff" font-size="13" font-weight="700">configuracion_empresa</text><rect x="10" y="36" width="22" height="15" rx="4" fill="#CA8A04" opacity="0.16"/><text x="21" y="47" fill="#CA8A04" font-size="10" font-weight="700" text-anchor="middle">PK</text><text x="40" y="47" fill="#1f2937" font-size="12.5" font-weight="600">id</text><text x="12" y="66" fill="#5b6675" font-size="12.5" font-weight="400">nombre</text><text x="12" y="85" fill="#5b6675" font-size="12.5" font-weight="400">nit</text><text x="12" y="104" fill="#5b6675" font-size="12.5" font-weight="400">stock_minimo_default</text><text x="12" y="123" fill="#5b6675" font-size="12.5" font-weight="400">logo_url</text></g><g transform="translate(430,30)"><rect x="0" y="0" width="200" height="118" rx="9" fill="#ffffff" stroke="#d0d7e0" stroke-width="1"/><rect x="0" y="0" width="200" height="26" rx="9" fill="#B45309"/><rect x="0" y="12" width="200" height="14" fill="#B45309"/><text x="11" y="18" fill="#fff" font-size="13" font-weight="700">proveedores</text><rect x="10" y="36" width="22" height="15" rx="4" fill="#CA8A04" opacity="0.16"/><text x="21" y="47" fill="#CA8A04" font-size="10" font-weight="700" text-anchor="middle">PK</text><text x="40" y="47" fill="#1f2937" font-size="12.5" font-weight="600">id</text><text x="12" y="66" fill="#5b6675" font-size="12.5" font-weight="400">nombre</text><text x="12" y="85" fill="#5b6675" font-size="12.5" font-weight="400">nit</text><text x="12" y="104" fill="#5b6675" font-size="12.5" font-weight="400">contacto</text></g><g transform="translate(700,30)"><rect x="0" y="0" width="210" height="118" rx="9" fill="#ffffff" stroke="#d0d7e0" stroke-width="1"/><rect x="0" y="0" width="210" height="26" rx="9" fill="#B45309"/><rect x="0" y="12" width="210" height="14" fill="#B45309"/><text x="11" y="18" fill="#fff" font-size="13" font-weight="700">ordenes_compra</text><rect x="10" y="36" width="22" height="15" rx="4" fill="#CA8A04" opacity="0.16"/><text x="21" y="47" fill="#CA8A04" font-size="10" font-weight="700" text-anchor="middle">PK</text><text x="40" y="47" fill="#1f2937" font-size="12.5" font-weight="600">id</text><rect x="10" y="55" width="22" height="15" rx="4" fill="#2563EB" opacity="0.16"/><text x="21" y="66" fill="#2563EB" font-size="10" font-weight="700" text-anchor="middle">FK</text><text x="40" y="66" fill="#5b6675" font-size="12.5" font-weight="400">proveedor_id</text><text x="12" y="85" fill="#5b6675" font-size="12.5" font-weight="400">estado</text><text x="12" y="104" fill="#5b6675" font-size="12.5" font-weight="400">fecha_orden</text></g><g transform="translate(980,30)"><rect x="0" y="0" width="230" height="137" rx="9" fill="#ffffff" stroke="#d0d7e0" stroke-width="1"/><rect x="0" y="0" width="230" height="26" rx="9" fill="#B45309"/><rect x="0" y="12" width="230" height="14" fill="#B45309"/><text x="11" y="18" fill="#fff" font-size="13" font-weight="700">orden_compra_items</text><rect x="10" y="36" width="22" height="15" rx="4" fill="#CA8A04" opacity="0.16"/><text x="21" y="47" fill="#CA8A04" font-size="10" font-weight="700" text-anchor="middle">PK</text><text x="40" y="47" fill="#1f2937" font-size="12.5" font-weight="600">id</text><rect x="10" y="55" width="22" height="15" rx="4" fill="#2563EB" opacity="0.16"/><text x="21" y="66" fill="#2563EB" font-size="10" font-weight="700" text-anchor="middle">FK</text><text x="40" y="66" fill="#5b6675" font-size="12.5" font-weight="400">orden_compra_id</text><rect x="10" y="74" width="22" height="15" rx="4" fill="#2563EB" opacity="0.16"/><text x="21" y="85" fill="#2563EB" font-size="10" font-weight="700" text-anchor="middle">FK</text><text x="40" y="85" fill="#5b6675" font-size="12.5" font-weight="400">producto_id</text><text x="12" y="104" fill="#5b6675" font-size="12.5" font-weight="400">cantidad</text><text x="12" y="123" fill="#5b6675" font-size="12.5" font-weight="400">costo_unitario</text></g><g transform="translate(360,210)"><rect x="0" y="0" width="250" height="118" rx="9" fill="#ffffff" stroke="#d0d7e0" stroke-width="1"/><rect x="0" y="0" width="250" height="26" rx="9" fill="#1D6DB2"/><rect x="0" y="12" width="250" height="14" fill="#1D6DB2"/><text x="11" y="18" fill="#fff" font-size="13" font-weight="700">producto_codigos_equivalentes</text><rect x="10" y="36" width="22" height="15" rx="4" fill="#CA8A04" opacity="0.16"/><text x="21" y="47" fill="#CA8A04" font-size="10" font-weight="700" text-anchor="middle">PK</text><text x="40" y="47" fill="#1f2937" font-size="12.5" font-weight="600">id</text><rect x="10" y="55" width="22" height="15" rx="4" fill="#2563EB" opacity="0.16"/><text x="21" y="66" fill="#2563EB" font-size="10" font-weight="700" text-anchor="middle">FK</text><text x="40" y="66" fill="#5b6675" font-size="12.5" font-weight="400">producto_id</text><text x="12" y="85" fill="#5b6675" font-size="12.5" font-weight="400">codigo_equivalente</text><text x="12" y="104" fill="#5b6675" font-size="12.5" font-weight="400">fabricante</text></g><g transform="translate(1000,210)"><rect x="0" y="0" width="210" height="118" rx="9" fill="#ffffff" stroke="#d0d7e0" stroke-width="1"/><rect x="0" y="0" width="210" height="26" rx="9" fill="#0F766E"/><rect x="0" y="12" width="210" height="14" fill="#0F766E"/><text x="11" y="18" fill="#fff" font-size="13" font-weight="700">clientes</text><rect x="10" y="36" width="22" height="15" rx="4" fill="#CA8A04" opacity="0.16"/><text x="21" y="47" fill="#CA8A04" font-size="10" font-weight="700" text-anchor="middle">PK</text><text x="40" y="47" fill="#1f2937" font-size="12.5" font-weight="600">id</text><text x="12" y="66" fill="#5b6675" font-size="12.5" font-weight="400">nombre</text><text x="12" y="85" fill="#5b6675" font-size="12.5" font-weight="400">ci_nit</text><text x="12" y="104" fill="#5b6675" font-size="12.5" font-weight="400">telefono</text></g><g transform="translate(1300,210)"><rect x="0" y="0" width="230" height="80" rx="9" fill="#ffffff" stroke="#0F766E" stroke-width="1.3" stroke-dasharray="5 4"/><rect x="0" y="0" width="230" height="26" rx="9" fill="#0F766E"/><rect x="0" y="12" width="230" height="14" fill="#0F766E"/><text x="11" y="18" fill="#fff" font-size="13" font-weight="700">vista_proformas</text><text x="12" y="47" fill="#1f2937" font-size="12.5" font-weight="600">VIEW sobre proformas</text><text x="12" y="66" fill="#5b6675" font-size="12.5" font-weight="400">+ estado_efectivo</text></g><g transform="translate(40,390)"><rect x="0" y="0" width="220" height="118" rx="9" fill="#ffffff" stroke="#d0d7e0" stroke-width="1"/><rect x="0" y="0" width="220" height="26" rx="9" fill="#64748b"/><rect x="0" y="12" width="220" height="14" fill="#64748b"/><text x="11" y="18" fill="#fff" font-size="13" font-weight="700">perfiles</text><rect x="10" y="36" width="22" height="15" rx="4" fill="#CA8A04" opacity="0.16"/><text x="21" y="47" fill="#CA8A04" font-size="10" font-weight="700" text-anchor="middle">PK</text><text x="40" y="47" fill="#1f2937" font-size="12.5" font-weight="600">id  → auth.users</text><text x="12" y="66" fill="#5b6675" font-size="12.5" font-weight="400">nombre_completo</text><text x="12" y="85" fill="#5b6675" font-size="12.5" font-weight="400">rol (admin/vendedor)</text><text x="12" y="104" fill="#5b6675" font-size="12.5" font-weight="400">activo</text></g><g transform="translate(380,380)"><rect x="0" y="0" width="250" height="175" rx="9" fill="#ffffff" stroke="#d0d7e0" stroke-width="1"/><rect x="0" y="0" width="250" height="26" rx="9" fill="#1D6DB2"/><rect x="0" y="12" width="250" height="14" fill="#1D6DB2"/><text x="11" y="18" fill="#fff" font-size="13" font-weight="700">productos</text><rect x="10" y="36" width="22" height="15" rx="4" fill="#CA8A04" opacity="0.16"/><text x="21" y="47" fill="#CA8A04" font-size="10" font-weight="700" text-anchor="middle">PK</text><text x="40" y="47" fill="#1f2937" font-size="12.5" font-weight="600">id</text><rect x="10" y="55" width="22" height="15" rx="4" fill="#059669" opacity="0.16"/><text x="21" y="66" fill="#059669" font-size="10" font-weight="700" text-anchor="middle">U</text><text x="40" y="66" fill="#5b6675" font-size="12.5" font-weight="400">codigo</text><text x="12" y="85" fill="#5b6675" font-size="12.5" font-weight="400">descripcion</text><text x="12" y="104" fill="#5b6675" font-size="12.5" font-weight="400">linea_marca</text><text x="12" y="123" fill="#5b6675" font-size="12.5" font-weight="400">precio</text><rect x="10" y="131" width="22" height="15" rx="4" fill="#7C3AED" opacity="0.16"/><text x="21" y="142" fill="#7C3AED" font-size="10" font-weight="700" text-anchor="middle">C</text><text x="40" y="142" fill="#5b6675" font-size="12.5" font-weight="400">stock_actual</text><text x="12" y="161" fill="#5b6675" font-size="12.5" font-weight="400">stock_minimo</text></g><g transform="translate(1000,380)"><rect x="0" y="0" width="230" height="156" rx="9" fill="#ffffff" stroke="#d0d7e0" stroke-width="1"/><rect x="0" y="0" width="230" height="26" rx="9" fill="#0F766E"/><rect x="0" y="12" width="230" height="14" fill="#0F766E"/><text x="11" y="18" fill="#fff" font-size="13" font-weight="700">proformas</text><rect x="10" y="36" width="22" height="15" rx="4" fill="#CA8A04" opacity="0.16"/><text x="21" y="47" fill="#CA8A04" font-size="10" font-weight="700" text-anchor="middle">PK</text><text x="40" y="47" fill="#1f2937" font-size="12.5" font-weight="600">id</text><rect x="10" y="55" width="22" height="15" rx="4" fill="#059669" opacity="0.16"/><text x="21" y="66" fill="#059669" font-size="10" font-weight="700" text-anchor="middle">U</text><text x="40" y="66" fill="#5b6675" font-size="12.5" font-weight="400">numero</text><rect x="10" y="74" width="22" height="15" rx="4" fill="#2563EB" opacity="0.16"/><text x="21" y="85" fill="#2563EB" font-size="10" font-weight="700" text-anchor="middle">FK</text><text x="40" y="85" fill="#5b6675" font-size="12.5" font-weight="400">cliente_id</text><rect x="10" y="93" width="22" height="15" rx="4" fill="#2563EB" opacity="0.16"/><text x="21" y="104" fill="#2563EB" font-size="10" font-weight="700" text-anchor="middle">FK</text><text x="40" y="104" fill="#5b6675" font-size="12.5" font-weight="400">venta_id  ↺</text><text x="12" y="123" fill="#5b6675" font-size="12.5" font-weight="400">estado</text><text x="12" y="142" fill="#5b6675" font-size="12.5" font-weight="400">total</text></g><g transform="translate(1300,380)"><rect x="0" y="0" width="230" height="137" rx="9" fill="#ffffff" stroke="#d0d7e0" stroke-width="1"/><rect x="0" y="0" width="230" height="26" rx="9" fill="#0F766E"/><rect x="0" y="12" width="230" height="14" fill="#0F766E"/><text x="11" y="18" fill="#fff" font-size="13" font-weight="700">proforma_items</text><rect x="10" y="36" width="22" height="15" rx="4" fill="#CA8A04" opacity="0.16"/><text x="21" y="47" fill="#CA8A04" font-size="10" font-weight="700" text-anchor="middle">PK</text><text x="40" y="47" fill="#1f2937" font-size="12.5" font-weight="600">id</text><rect x="10" y="55" width="22" height="15" rx="4" fill="#2563EB" opacity="0.16"/><text x="21" y="66" fill="#2563EB" font-size="10" font-weight="700" text-anchor="middle">FK</text><text x="40" y="66" fill="#5b6675" font-size="12.5" font-weight="400">proforma_id</text><rect x="10" y="74" width="22" height="15" rx="4" fill="#2563EB" opacity="0.16"/><text x="21" y="85" fill="#2563EB" font-size="10" font-weight="700" text-anchor="middle">FK</text><text x="40" y="85" fill="#5b6675" font-size="12.5" font-weight="400">producto_id</text><text x="12" y="104" fill="#5b6675" font-size="12.5" font-weight="400">cantidad</text><text x="12" y="123" fill="#5b6675" font-size="12.5" font-weight="400">subtotal_linea</text></g><g transform="translate(40,600)"><rect x="0" y="0" width="220" height="99" rx="9" fill="#ffffff" stroke="#d0d7e0" stroke-width="1"/><rect x="0" y="0" width="220" height="26" rx="9" fill="#1D6DB2"/><rect x="0" y="12" width="220" height="14" fill="#1D6DB2"/><text x="11" y="18" fill="#fff" font-size="13" font-weight="700">vehiculos</text><rect x="10" y="36" width="22" height="15" rx="4" fill="#CA8A04" opacity="0.16"/><text x="21" y="47" fill="#CA8A04" font-size="10" font-weight="700" text-anchor="middle">PK</text><text x="40" y="47" fill="#1f2937" font-size="12.5" font-weight="600">id</text><text x="12" y="66" fill="#5b6675" font-size="12.5" font-weight="400">marca</text><rect x="10" y="74" width="22" height="15" rx="4" fill="#059669" opacity="0.16"/><text x="21" y="85" fill="#059669" font-size="10" font-weight="700" text-anchor="middle">U</text><text x="40" y="85" fill="#5b6675" font-size="12.5" font-weight="400">modelo</text></g><g transform="translate(360,600)"><rect x="0" y="0" width="250" height="118" rx="9" fill="#ffffff" stroke="#d0d7e0" stroke-width="1"/><rect x="0" y="0" width="250" height="26" rx="9" fill="#1D6DB2"/><rect x="0" y="12" width="250" height="14" fill="#1D6DB2"/><text x="11" y="18" fill="#fff" font-size="13" font-weight="700">producto_vehiculos_compatibles</text><rect x="10" y="36" width="22" height="15" rx="4" fill="#CA8A04" opacity="0.16"/><text x="21" y="47" fill="#CA8A04" font-size="10" font-weight="700" text-anchor="middle">PK</text><text x="40" y="47" fill="#1f2937" font-size="12.5" font-weight="600">id</text><rect x="10" y="55" width="22" height="15" rx="4" fill="#2563EB" opacity="0.16"/><text x="21" y="66" fill="#2563EB" font-size="10" font-weight="700" text-anchor="middle">FK</text><text x="40" y="66" fill="#5b6675" font-size="12.5" font-weight="400">producto_id</text><rect x="10" y="74" width="22" height="15" rx="4" fill="#2563EB" opacity="0.16"/><text x="21" y="85" fill="#2563EB" font-size="10" font-weight="700" text-anchor="middle">FK</text><text x="40" y="85" fill="#5b6675" font-size="12.5" font-weight="400">vehiculo_id</text><text x="12" y="104" fill="#5b6675" font-size="12.5" font-weight="400">anio_desde / hasta</text></g><g transform="translate(1000,610)"><rect x="0" y="0" width="230" height="137" rx="9" fill="#ffffff" stroke="#d0d7e0" stroke-width="1"/><rect x="0" y="0" width="230" height="26" rx="9" fill="#0F766E"/><rect x="0" y="12" width="230" height="14" fill="#0F766E"/><text x="11" y="18" fill="#fff" font-size="13" font-weight="700">ventas</text><rect x="10" y="36" width="22" height="15" rx="4" fill="#CA8A04" opacity="0.16"/><text x="21" y="47" fill="#CA8A04" font-size="10" font-weight="700" text-anchor="middle">PK</text><text x="40" y="47" fill="#1f2937" font-size="12.5" font-weight="600">id</text><rect x="10" y="55" width="22" height="15" rx="4" fill="#059669" opacity="0.16"/><text x="21" y="66" fill="#059669" font-size="10" font-weight="700" text-anchor="middle">U</text><text x="40" y="66" fill="#5b6675" font-size="12.5" font-weight="400">numero</text><rect x="10" y="74" width="22" height="15" rx="4" fill="#2563EB" opacity="0.16"/><text x="21" y="85" fill="#2563EB" font-size="10" font-weight="700" text-anchor="middle">FK</text><text x="40" y="85" fill="#5b6675" font-size="12.5" font-weight="400">cliente_id</text><rect x="10" y="93" width="22" height="15" rx="4" fill="#2563EB" opacity="0.16"/><text x="21" y="104" fill="#2563EB" font-size="10" font-weight="700" text-anchor="middle">FK</text><text x="40" y="104" fill="#5b6675" font-size="12.5" font-weight="400">proforma_origen_id  ↺</text><text x="12" y="123" fill="#5b6675" font-size="12.5" font-weight="400">total</text></g><g transform="translate(1300,610)"><rect x="0" y="0" width="230" height="137" rx="9" fill="#ffffff" stroke="#d0d7e0" stroke-width="1"/><rect x="0" y="0" width="230" height="26" rx="9" fill="#0F766E"/><rect x="0" y="12" width="230" height="14" fill="#0F766E"/><text x="11" y="18" fill="#fff" font-size="13" font-weight="700">venta_items</text><rect x="10" y="36" width="22" height="15" rx="4" fill="#CA8A04" opacity="0.16"/><text x="21" y="47" fill="#CA8A04" font-size="10" font-weight="700" text-anchor="middle">PK</text><text x="40" y="47" fill="#1f2937" font-size="12.5" font-weight="600">id</text><rect x="10" y="55" width="22" height="15" rx="4" fill="#2563EB" opacity="0.16"/><text x="21" y="66" fill="#2563EB" font-size="10" font-weight="700" text-anchor="middle">FK</text><text x="40" y="66" fill="#5b6675" font-size="12.5" font-weight="400">venta_id</text><rect x="10" y="74" width="22" height="15" rx="4" fill="#2563EB" opacity="0.16"/><text x="21" y="85" fill="#2563EB" font-size="10" font-weight="700" text-anchor="middle">FK</text><text x="40" y="85" fill="#5b6675" font-size="12.5" font-weight="400">producto_id</text><text x="12" y="104" fill="#5b6675" font-size="12.5" font-weight="400">costo_fifo_unitario</text><text x="12" y="123" fill="#5b6675" font-size="12.5" font-weight="400">subtotal_linea</text></g><g transform="translate(560,790)"><rect x="0" y="0" width="320" height="175" rx="9" fill="#ffffff" stroke="#d0d7e0" stroke-width="1"/><rect x="0" y="0" width="320" height="26" rx="9" fill="#6D28D9"/><rect x="0" y="12" width="320" height="14" fill="#6D28D9"/><text x="11" y="18" fill="#fff" font-size="13" font-weight="700">kardex_movimientos</text><rect x="10" y="36" width="22" height="15" rx="4" fill="#CA8A04" opacity="0.16"/><text x="21" y="47" fill="#CA8A04" font-size="10" font-weight="700" text-anchor="middle">PK</text><text x="40" y="47" fill="#1f2937" font-size="12.5" font-weight="600">id</text><text x="12" y="66" fill="#5b6675" font-size="12.5" font-weight="400">consecutivo (FIFO)</text><rect x="10" y="74" width="22" height="15" rx="4" fill="#2563EB" opacity="0.16"/><text x="21" y="85" fill="#2563EB" font-size="10" font-weight="700" text-anchor="middle">FK</text><text x="40" y="85" fill="#5b6675" font-size="12.5" font-weight="400">producto_id</text><text x="12" y="104" fill="#5b6675" font-size="12.5" font-weight="400">tipo_movimiento</text><text x="12" y="123" fill="#5b6675" font-size="12.5" font-weight="400">cantidad</text><text x="12" y="142" fill="#5b6675" font-size="12.5" font-weight="400">cantidad_restante_lote</text><rect x="10" y="150" width="16" height="15" rx="4" fill="#DC2626" opacity="0.16"/><text x="18" y="161" fill="#DC2626" font-size="10" font-weight="700" text-anchor="middle">◇</text><text x="40" y="161" fill="#5b6675" font-size="12.5" font-weight="400">referencia_id</text></g></svg>